<?xml version="1.0" encoding="utf-8"?>
<!-- Generator: Adobe Illustrator 27.7.0, SVG Export Plug-In . SVG Version: 6.00 Build 0)  -->
<svg version="1.1" id="Layer_1" xmlns="http://www.w3.org/2000/svg" xmlns:xlink="http://www.w3.org/1999/xlink" x="0px" y="0px"
	 viewBox="0 0 125.5 25.8" style="enable-background:new 0 0 125.5 25.8;" xml:space="preserve">
<style type="text/css">
	.st0{fill:#FFFFFF;}
	.st1{fill:#0BFFD0;}
</style>
<g>
	<path class="st0" d="M116.3,20.2c0.4,0.2,1,0.4,1.5,0.5c0.7,0.1,1.5,0.2,2.4,0.2c1.1,0,2-0.1,2.8-0.4s1.4-0.7,1.8-1.3
		c0.4-0.6,0.6-1.3,0.6-2.1c0-0.7-0.2-1.3-0.5-1.7c-0.3-0.5-0.8-0.9-1.4-1.2s-1.3-0.7-2.2-1c-0.8-0.3-1.5-0.6-2.1-0.8
		c-0.5-0.3-0.9-0.5-1.2-0.8c-0.3-0.3-0.4-0.7-0.4-1.1c0-0.6,0.3-1.1,0.8-1.4c0.5-0.3,1.3-0.5,2.3-0.5c0.7,0,1.3,0.1,2,0.3
		c0.5,0.1,0.9,0.3,1.4,0.4c0.2,0.1,0.4,0,0.5-0.2l0.3-0.7c0-0.1,0-0.2,0-0.3s-0.1-0.1-0.2-0.2c-0.5-0.2-1-0.3-1.5-0.5
		c-0.7-0.2-1.5-0.2-2.3-0.2c-1.5,0-2.7,0.3-3.6,0.9c-0.9,0.6-1.3,1.4-1.3,2.5c0,0.7,0.2,1.3,0.5,1.7s0.8,0.8,1.4,1.2
		c0.6,0.3,1.4,0.6,2.2,1c0.9,0.3,1.6,0.6,2.1,0.9c0.5,0.3,0.9,0.6,1.1,0.9s0.3,0.7,0.3,1.1c0,0.7-0.3,1.3-0.9,1.7
		c-0.6,0.4-1.4,0.6-2.6,0.6c-0.8,0-1.6-0.1-2.4-0.3c-0.5-0.1-0.9-0.3-1.3-0.4h-0.1c-0.1,0-0.2,0-0.2,0.1c-0.1,0.1-0.2,0.2-0.2,0.3
		v0.8C116.1,20.1,116.2,20.2,116.3,20.2z"/>
	<path class="st0" d="M112.7,17.8c0.5-1,0.7-2.3,0.7-3.8c0-2.3-0.5-4-1.5-5.1s-2.3-1.7-4-1.7c-1.1,0-1.9,0.2-2.6,0.6
		s-1.2,0.9-1.5,1.5c-0.1,0.1-0.2,0.1-0.3,0c0,0-0.1-0.1-0.1-0.2c0-0.3,0-0.7,0.1-1.1c0-0.5,0-1.1,0-1.6V2.1c0-0.2-0.2-0.4-0.4-0.4
		H102c-0.2,0-0.4,0.2-0.4,0.4v18.3c0,0.2,0.2,0.4,0.4,0.4h0.6c0.2,0,0.3-0.1,0.3-0.3l0.3-1.3c0-0.1,0.1-0.2,0.3-0.2
		c0.1,0,0.2,0,0.2,0.1c0.4,0.5,0.9,1,1.5,1.4c0.7,0.4,1.5,0.6,2.6,0.6s2.1-0.3,2.9-0.8C111.6,19.6,112.2,18.9,112.7,17.8z
		 M110.5,18.1c-0.7,1-1.6,1.4-3,1.4c-1.5,0-2.6-0.5-3.2-1.4s-0.9-2.3-0.9-4V14c0-1.2,0.1-2.2,0.4-3s0.7-1.4,1.3-1.8
		c0.6-0.4,1.4-0.6,2.4-0.6c1.3,0,2.3,0.5,3,1.4c0.6,0.9,1,2.3,1,4C111.5,15.8,111.2,17.1,110.5,18.1z"/>
	<path class="st0" d="M87.2,19.3c0.4,0.6,0.8,1,1.4,1.3s1.3,0.4,2.1,0.4c0.8,0,1.4-0.1,1.9-0.2c0.5-0.2,1-0.4,1.4-0.7
		c0.4-0.3,0.8-0.7,1.1-1.2c0.1-0.1,0.3-0.1,0.4,0.1l0.3,1.5c0,0.2,0.2,0.3,0.3,0.3h0.6c0.2,0,0.4-0.2,0.4-0.4v-8.7
		c0-1.5-0.4-2.7-1.1-3.4c-0.8-0.7-1.9-1.1-3.5-1.1c-0.9,0-1.7,0.1-2.5,0.3c-0.6,0.2-1.2,0.4-1.7,0.6c-0.2,0.1-0.2,0.3-0.2,0.4
		l0.3,0.7c0,0.1,0.1,0.2,0.2,0.2s0.2,0,0.3,0C89.5,9.2,90,9,90.5,8.9c0.7-0.2,1.4-0.3,2.1-0.3c0.9,0,1.7,0.3,2.2,0.7
		c0.5,0.5,0.8,1.4,0.8,2.6v0.4c0,0.3-0.3,0.6-0.6,0.6L93.1,13c-2.2,0.1-3.8,0.5-4.8,1.2s-1.5,1.7-1.5,3C86.7,18,86.9,18.7,87.2,19.3
		z M89.7,14.9c0.7-0.5,1.9-0.8,3.7-0.9l1.6-0.1c0.2,0,0.3,0.1,0.5,0.2c0.1,0.1,0.2,0.3,0.2,0.5v0.7c0,1.4-0.4,2.4-1.2,3.1
		c-0.8,0.7-1.8,1-3.1,1c-0.8,0-1.5-0.2-2-0.6s-0.8-1-0.8-1.8C88.6,16.2,88.9,15.5,89.7,14.9z"/>
	<path class="st0" d="M83.1,1.7H82c-0.2,0-0.4,0.2-0.4,0.4v18.3c0,0.2,0.2,0.4,0.4,0.4h1.1c0.2,0,0.4-0.2,0.4-0.4V2.1
		C83.4,1.9,83.3,1.7,83.1,1.7z"/>
	<path class="st0" d="M72.4,6.7c1.5,0,2.7,0.4,3.6,1.2s1.4,2.1,1.4,3.9v8.5c0,0.3-0.2,0.5-0.5,0.5h-2.8c-0.3,0-0.5-0.2-0.5-0.5v-7.6
		c0-1-0.2-1.7-0.5-2.2c-0.4-0.5-0.9-0.8-1.7-0.8c-1.2,0-1.9,0.4-2.4,1.2c-0.4,0.8-0.6,1.9-0.6,3.4v6c0,0.3-0.2,0.5-0.5,0.5h-2.8
		c-0.3,0-0.5-0.2-0.5-0.5V7.5c0-0.3,0.2-0.5,0.5-0.5h2c0.2,0,0.4,0.1,0.5,0.4L68,8.7c0,0.1,0.1,0.1,0.2,0.1l0,0c0.1,0,0.1,0,0.1-0.1
		c0.3-0.4,0.6-0.8,1.1-1.1c0.4-0.3,0.9-0.5,1.5-0.7C71.3,6.8,71.8,6.7,72.4,6.7z"/>
	<path class="st0" d="M60.8,7c0.3,0,0.5,0.2,0.5,0.5v12.9c0,0.3-0.2,0.5-0.5,0.5H58c-0.3,0-0.5-0.2-0.5-0.5V7.5
		C57.5,7.2,57.8,7,58,7H60.8z M59.4,1.6c0.6,0,1,0.1,1.4,0.4s0.6,0.7,0.6,1.4s-0.2,1.2-0.6,1.5c-0.4,0.3-0.9,0.4-1.4,0.4
		c-0.6,0-1.1-0.1-1.5-0.4s-0.6-0.8-0.6-1.5s0.2-1.2,0.6-1.4C58.4,1.7,58.9,1.6,59.4,1.6z"/>
	<path class="st0" d="M45.8,14c0.1-0.2,0.1-0.4,0-0.5L42,7.8C41.8,7.5,42,7,42.4,7h3.1c0.2,0,0.3,0.1,0.4,0.2l2.1,3.5
		c0.2,0.3,0.6,0.3,0.8,0l2.1-3.5C51.2,7.1,51.3,7,51.5,7h3.1C55,7,55.2,7.4,55,7.8l-3.8,5.7c-0.1,0.2-0.1,0.4,0,0.5l4,6
		c0.2,0.3,0,0.8-0.4,0.8h-3.1c-0.2,0-0.3-0.1-0.4-0.2L49,16.8c-0.2-0.3-0.6-0.3-0.8,0l-2.4,3.8c-0.1,0.1-0.2,0.2-0.4,0.2h-3.1
		c-0.4,0-0.6-0.4-0.4-0.8L45.8,14z"/>
</g>
<g>
	<g>
		<path class="st1" d="M19.3,13.1c-0.1-0.2-0.1-0.4,0-0.5l8.9-11.7c0.3-0.4,0-0.9-0.5-0.9c0,0-7.5,0-8,0c-0.7,0-0.9,0.2-1.2,0.6
			c-0.2,0.2-3.9,5.2-6.6,8.7l0,0L0.1,24.9c-0.3,0.4,0,0.9,0.5,0.9h7.9c0.6,0,1.1-0.3,1.4-0.7l4.2-5.6c2.2,2.8,4.2,5.6,4.3,5.7
			c0.3,0.4,0.6,0.6,1.2,0.6s8,0,8,0c0.5,0,0.8-0.5,0.5-0.9L19.3,13.1z"/>
	</g>
	<path class="st1" d="M7.9,0H0.6C0.1,0-0.2,0.5,0.1,0.9l7.4,9.8c0.1,0.1,0.2,0.2,0.4,0.3V0z"/>
</g>
</svg>
