<?xml version="1.0" encoding="utf-8"?>
<!-- Generator: Adobe Illustrator 27.7.0, SVG Export Plug-In . SVG Version: 6.00 Build 0)  -->
<svg version="1.1" id="Layer_1" xmlns="http://www.w3.org/2000/svg" xmlns:xlink="http://www.w3.org/1999/xlink" x="0px" y="0px"
	 viewBox="0 0 50.9 11.6" style="enable-background:new 0 0 50.9 11.6;" xml:space="preserve" fill="currentColor">
<g>
	<g>
		<path class="st0" d="M45.4,11.2c0.3,0.1,0.6,0.2,0.9,0.3c0.4,0.1,0.9,0.1,1.5,0.1c0.7,0,1.2-0.1,1.7-0.3c0.5-0.2,0.8-0.4,1.1-0.8
			c0.2-0.3,0.4-0.8,0.4-1.3c0-0.4-0.1-0.8-0.3-1c-0.2-0.3-0.5-0.5-0.8-0.7C49.4,7.4,49,7.2,48.5,7c-0.5-0.2-0.9-0.4-1.2-0.5
			c-0.3-0.2-0.6-0.3-0.7-0.5c-0.2-0.2-0.2-0.4-0.2-0.7c0-0.4,0.2-0.6,0.5-0.8c0.3-0.2,0.8-0.3,1.4-0.3c0.4,0,0.8,0.1,1.2,0.2
			c0.3,0.1,0.6,0.2,0.8,0.3c0.1,0,0.2,0,0.3-0.1L50.6,4c0-0.1,0-0.1,0-0.2c0,0-0.1-0.1-0.1-0.1c-0.3-0.1-0.6-0.2-0.9-0.3
			c-0.4-0.1-0.9-0.1-1.4-0.1c-0.9,0-1.6,0.2-2.1,0.5c-0.5,0.4-0.8,0.8-0.8,1.5c0,0.4,0.1,0.8,0.3,1c0.2,0.3,0.5,0.5,0.8,0.7
			c0.4,0.2,0.8,0.4,1.3,0.6c0.5,0.2,0.9,0.4,1.2,0.5c0.3,0.2,0.5,0.3,0.7,0.5c0.1,0.2,0.2,0.4,0.2,0.6c0,0.4-0.2,0.8-0.5,1
			c-0.3,0.2-0.9,0.4-1.6,0.4c-0.5,0-1-0.1-1.4-0.2c-0.3-0.1-0.5-0.2-0.8-0.3c0,0-0.1,0-0.1,0c0,0-0.1,0-0.1,0
			c-0.1,0-0.1,0.1-0.1,0.2V11C45.3,11,45.4,11.1,45.4,11.2z"/>
		<path class="st0" d="M43.2,9.7c0.3-0.6,0.4-1.4,0.4-2.3c0-1.4-0.3-2.4-0.9-3.1c-0.6-0.7-1.4-1-2.4-1c-0.6,0-1.2,0.1-1.6,0.4
			c-0.4,0.2-0.7,0.5-0.9,0.9c0,0.1-0.1,0.1-0.2,0c0,0,0-0.1,0-0.1c0-0.2,0-0.4,0-0.7c0-0.3,0-0.6,0-1V0.3c0-0.1-0.1-0.2-0.2-0.2
			h-0.6c-0.1,0-0.2,0.1-0.2,0.2v10.9c0,0.1,0.1,0.2,0.2,0.2h0.4c0.1,0,0.2-0.1,0.2-0.2l0.2-0.8c0-0.1,0.1-0.1,0.2-0.1
			c0.1,0,0.1,0,0.1,0.1c0.2,0.3,0.5,0.6,0.9,0.8c0.4,0.2,0.9,0.3,1.5,0.3c0.7,0,1.3-0.2,1.7-0.5C42.6,10.8,43,10.3,43.2,9.7z
			 M42,9.9c-0.4,0.6-1,0.9-1.8,0.9c-0.9,0-1.6-0.3-1.9-0.8c-0.3-0.6-0.5-1.4-0.5-2.4V7.4c0-0.7,0.1-1.3,0.2-1.8
			c0.2-0.5,0.4-0.8,0.8-1.1c0.4-0.2,0.8-0.4,1.4-0.4C41,4.2,41.6,4.5,42,5c0.4,0.5,0.6,1.4,0.6,2.4C42.6,8.5,42.4,9.3,42,9.9z"/>
		<path class="st0" d="M28.1,10.6c0.2,0.3,0.5,0.6,0.9,0.8c0.4,0.2,0.8,0.3,1.3,0.3c0.5,0,0.8,0,1.2-0.1c0.3-0.1,0.6-0.2,0.8-0.4
			c0.2-0.2,0.5-0.4,0.7-0.7c0.1-0.1,0.2,0,0.2,0.1l0.2,0.9c0,0.1,0.1,0.2,0.2,0.2h0.4c0.1,0,0.2-0.1,0.2-0.2V6c0-0.9-0.2-1.6-0.7-2
			c-0.5-0.4-1.2-0.6-2.1-0.6c-0.5,0-1,0.1-1.5,0.2c-0.4,0.1-0.7,0.2-1,0.4c-0.1,0-0.1,0.2-0.1,0.3l0.2,0.4c0,0.1,0.1,0.1,0.1,0.1
			c0.1,0,0.1,0,0.2,0c0.3-0.1,0.5-0.2,0.8-0.3c0.4-0.1,0.8-0.2,1.2-0.2c0.6,0,1,0.1,1.3,0.4C32.9,4.9,33,5.4,33,6.2v0.2
			c0,0.2-0.2,0.4-0.4,0.4l-1.1,0c-1.3,0-2.3,0.3-2.9,0.7c-0.6,0.4-0.9,1-0.9,1.8C27.7,9.8,27.8,10.2,28.1,10.6z M29.5,8
			c0.4-0.3,1.1-0.5,2.2-0.5l0.9,0c0.1,0,0.2,0,0.3,0.1C33,7.6,33,7.7,33,7.8v0.4c0,0.8-0.2,1.4-0.7,1.9c-0.5,0.4-1.1,0.6-1.8,0.6
			c-0.5,0-0.9-0.1-1.2-0.4c-0.3-0.2-0.5-0.6-0.5-1.1C28.8,8.7,29.1,8.3,29.5,8z"/>
		<path class="st0" d="M25.6,0.1h-0.6c-0.1,0-0.2,0.1-0.2,0.2v10.9c0,0.1,0.1,0.2,0.2,0.2h0.6c0.1,0,0.2-0.1,0.2-0.2V0.3
			C25.8,0.2,25.7,0.1,25.6,0.1z"/>
		<path class="st0" d="M19.2,3.1c0.9,0,1.6,0.2,2.1,0.7c0.5,0.5,0.8,1.2,0.8,2.3v5.1c0,0.2-0.1,0.3-0.3,0.3h-1.7
			c-0.2,0-0.3-0.1-0.3-0.3V6.7c0-0.6-0.1-1-0.3-1.3c-0.2-0.3-0.5-0.5-1-0.5c-0.7,0-1.2,0.2-1.4,0.7c-0.3,0.5-0.4,1.1-0.4,2v3.6
			c0,0.2-0.1,0.3-0.3,0.3h-1.7c-0.2,0-0.3-0.1-0.3-0.3V3.5c0-0.2,0.1-0.3,0.3-0.3H16c0.1,0,0.2,0.1,0.3,0.2l0.2,0.8
			c0,0,0,0.1,0.1,0.1l0,0c0,0,0.1,0,0.1,0c0.2-0.3,0.4-0.5,0.6-0.7c0.3-0.2,0.6-0.3,0.9-0.4C18.5,3.1,18.9,3.1,19.2,3.1z"/>
		<path class="st0" d="M12.3,3.2c0.2,0,0.3,0.1,0.3,0.3v7.7c0,0.2-0.1,0.3-0.3,0.3h-1.7c-0.2,0-0.3-0.1-0.3-0.3V3.5
			c0-0.2,0.1-0.3,0.3-0.3H12.3z M11.4,0c0.3,0,0.6,0.1,0.9,0.2c0.2,0.2,0.4,0.4,0.4,0.9c0,0.4-0.1,0.7-0.4,0.9
			c-0.2,0.2-0.5,0.2-0.9,0.2c-0.3,0-0.6-0.1-0.9-0.2c-0.2-0.2-0.4-0.5-0.4-0.9c0-0.4,0.1-0.7,0.4-0.9C10.8,0.1,11.1,0,11.4,0z"/>
	</g>
	<g>
		<g>
			<path class="st0" d="M6.2,7.5c0,0,0-0.1,0-0.2l2.9-3.8c0.1-0.1,0-0.3-0.2-0.3c0,0-2.4,0-2.6,0C6.1,3.2,6,3.3,5.9,3.4
				C5.9,3.5,4.7,5.1,3.8,6.2l0,0l-3.8,5c-0.1,0.1,0,0.3,0.2,0.3h2.5c0.2,0,0.4-0.1,0.5-0.2l1.4-1.8c0.7,0.9,1.4,1.8,1.4,1.8
				c0.1,0.1,0.2,0.2,0.4,0.2c0.2,0,2.6,0,2.6,0c0.2,0,0.2-0.2,0.2-0.3L6.2,7.5z"/>
		</g>
		<path class="st0" d="M2.5,3.2H0.2C0,3.2-0.1,3.4,0,3.5l2.4,3.1c0,0,0.1,0.1,0.1,0.1V3.2z"/>
	</g>
</g>
</svg>
